<svg width="166" height="69" viewBox="0 0 166 69" fill="none" xmlns="http://www.w3.org/2000/svg">
<rect x="1.5" y="1.5" width="163" height="66" stroke="#BFA45E" stroke-width="3"/>
<path d="M16.68 29.38C12.28 29.38 8.94 26.8 8.94 21.72C8.94 16.56 12.38 13.82 16.7 13.82C18.48 13.82 19.7 14.22 21 14.96L20.96 18.44H19.88L18.82 14.46L20.26 14.94V15.6C19.22 14.88 18.34 14.56 17.16 14.56C14.18 14.56 11.94 16.86 11.94 21.62C11.94 26.4 14.18 28.64 17.18 28.64C18.32 28.64 19.28 28.32 20.38 27.52V28.24L18.98 28.7L20.02 24.76H21.1L21.14 28.22C19.88 28.98 18.48 29.38 16.68 29.38ZM22.803 29V28.42L24.903 28.2H26.183L28.283 28.42V29H22.803ZM24.223 29C24.263 28 24.283 25.7 24.283 24.32V14.06L22.703 13.94V13.4L26.703 12.64L26.983 12.82L26.923 16V20.16L26.963 20.42V24.32C26.963 25.7 26.983 28 27.043 29H24.223ZM29.723 29V28.42L31.783 28.2H33.043L35.203 28.42V29H29.723ZM31.083 29C31.143 28 31.163 25.76 31.163 24.32V21.62C31.163 19.92 30.543 19.32 29.563 19.32C28.683 19.32 27.543 19.92 26.323 21.32L25.743 20.48H26.563C27.943 18.72 29.163 17.98 30.743 17.98C32.623 17.98 33.843 19.1 33.843 21.84V24.32C33.843 25.76 33.863 28 33.923 29H31.083ZM39.3958 29.34C37.7358 29.34 36.5358 28.34 36.5358 26.66C36.5358 24.92 37.5158 23.9 40.5758 23.06C41.6158 22.74 43.0758 22.38 44.1558 22.12V22.64C43.0758 22.92 41.9158 23.22 41.2158 23.48C39.7758 24.06 39.0358 24.96 39.0358 26.3C39.0358 27.5 39.6958 28.1 40.6758 28.1C41.3158 28.1 42.0158 27.76 43.3758 26.3L43.6758 27.36H42.9758C41.8158 28.64 41.0158 29.34 39.3958 29.34ZM44.9958 29.32C43.6158 29.32 42.9158 28.48 42.7558 27.14V21.38C42.7558 19.26 42.2158 18.64 40.6758 18.64C39.9758 18.64 39.2958 18.8 38.3358 19.18L39.5958 18.68L39.3758 20.22C39.3158 21.38 38.7358 21.8 38.0758 21.8C37.4358 21.8 36.9958 21.48 36.8558 20.88C37.0958 19.1 38.7558 17.98 41.5758 17.98C44.2358 17.98 45.3958 19.12 45.3958 21.88V27.12C45.3958 28.04 45.6158 28.34 46.0558 28.34C46.3758 28.34 46.5958 28.18 46.9558 27.66L47.2958 27.94C46.8158 28.9 46.1158 29.32 44.9958 29.32ZM48.075 29V28.42L50.235 28.18H51.955L54.175 28.42V29H48.075ZM49.495 29C49.535 28 49.555 25.7 49.555 24.32V22.8C49.555 21.46 49.535 20.7 49.495 19.74L47.935 19.6V19.1L51.855 18L52.115 18.18L52.255 21.04V24.32C52.255 25.7 52.275 28 52.315 29H49.495ZM52.255 22.6L51.595 21.4H52.135C52.695 19.2 54.155 17.98 55.475 17.98C56.375 17.98 57.095 18.32 57.295 19.32C57.275 20.16 56.875 20.78 55.975 20.78C55.295 20.78 54.855 20.38 54.355 19.72L53.895 19.2L54.635 19.3C53.475 19.9 52.775 20.84 52.255 22.6ZM58.155 29V28.42L60.275 28.2H61.515L63.675 28.42V29H58.155ZM59.555 29C59.595 28 59.615 25.7 59.615 24.32V22.84C59.615 21.52 59.595 20.64 59.555 19.68L57.975 19.56V19.06L62.135 18L62.375 18.18L62.315 21.26V24.32C62.315 25.7 62.335 28 62.395 29H59.555ZM60.855 15.9C60.015 15.9 59.335 15.3 59.335 14.44C59.335 13.6 60.015 12.98 60.855 12.98C61.715 12.98 62.395 13.6 62.395 14.44C62.395 15.3 61.715 15.9 60.855 15.9ZM68.9877 29.34C67.5077 29.34 66.3877 29.02 65.2277 28.4L65.3477 25.8H66.4877L67.0877 28.6L66.1277 28.48V27.76C66.9877 28.34 67.7077 28.6 68.7877 28.6C70.4077 28.6 71.2677 27.98 71.2677 26.86C71.2677 25.98 70.8477 25.4 69.2277 24.92L68.1077 24.54C66.3677 23.98 65.3277 23 65.3277 21.36C65.3277 19.42 66.8677 17.98 69.6277 17.98C70.9077 17.98 71.8877 18.28 73.0077 18.86L72.8877 21.26H71.8677L71.0877 18.58L71.9277 18.86V19.46C71.1277 18.94 70.5677 18.7 69.6677 18.7C68.3277 18.7 67.5477 19.36 67.5477 20.38C67.5477 21.18 68.0077 21.76 69.5277 22.22L70.6477 22.58C72.7277 23.26 73.6077 24.28 73.6077 25.84C73.6077 27.98 71.9077 29.34 68.9877 29.34ZM13.76 58.08L9.44 43.2H12.44L15.66 55.52H15.3L15.38 55.22L18.88 43.2H20.52L24.08 55.62H23.72L23.78 55.28L27.04 43.2H28.08L23.76 58.08H22.22L18.54 45.92H18.94L18.84 46.2L15.3 58.08H13.76ZM8.2 43.86V43.2H14.56V43.86L11.68 44.12H11.06L8.2 43.86ZM16.68 43.86V43.2H22.92V43.86L20.24 44.12H19.18L16.68 43.86ZM24.88 43.86V43.2H29.72V43.86L27.56 44.12H27.04L24.88 43.86ZM36.8947 58.38C33.2147 58.38 29.9947 55.68 29.9947 50.6C29.9947 45.58 33.2147 42.82 36.8947 42.82C40.5947 42.82 43.7947 45.54 43.7947 50.6C43.7947 55.64 40.6147 58.38 36.8947 58.38ZM36.8947 57.64C39.5547 57.64 40.8147 54.6 40.8147 50.6C40.8147 46.62 39.5547 43.56 36.8947 43.56C34.2547 43.56 32.9747 46.62 32.9747 50.6C32.9747 54.6 34.2547 57.64 36.8947 57.64ZM45.3648 58V57.36L48.4248 57.06H49.0048L52.0648 57.36V58H45.3648ZM47.2248 58C47.2848 55.76 47.2848 53.42 47.2848 51.08V50.14C47.2848 47.8 47.2848 45.5 47.2248 43.2H50.1448C50.0848 45.48 50.0848 47.76 50.0848 50.44V50.96C50.0848 53.38 50.0848 55.7 50.1448 58H47.2248ZM57.1448 58.28C55.4848 58.28 54.6248 57.78 54.4048 56.4L53.6848 53.42C53.3448 51.76 52.8448 51.04 51.2248 51.04H48.7448V50.32H51.5448C53.7848 50.32 54.8048 48.84 54.8048 47C54.8048 45.04 53.7048 43.92 51.5448 43.92H48.7048V43.2H52.2048C55.6048 43.2 57.4848 44.56 57.4848 46.96C57.4848 48.84 56.0448 50.54 52.2648 50.76V50.54C55.4248 50.7 56.2448 51.7 56.6648 53.8L57.5848 57.78L56.1848 57.16L59.3048 57.36V58C58.6048 58.18 58.0448 58.28 57.1448 58.28ZM45.3648 43.86V43.2H48.7048V44.12H48.4248L45.3648 43.86ZM62.2444 58C62.3044 55.76 62.3044 53.42 62.3044 51.08V50.14C62.3044 47.8 62.3044 45.5 62.2444 43.2H65.0844C65.0244 45.46 65.0244 47.8 65.0244 50.14V51.72C65.0244 53.52 65.0244 55.7 65.0844 58H62.2444ZM60.3844 58V57.36L63.4444 57.06H63.9844L66.8044 57.36V58H60.3844ZM60.3844 43.86V43.2H66.9644V43.86L63.9844 44.12H63.4444L60.3844 43.86ZM68.7444 58V57.36L71.5844 57.06H72.0444L74.7844 57.36V58H68.7444ZM68.9644 43.86V43.2H74.1044V43.86L71.8644 44.12L71.3244 44.16L68.9644 43.86ZM63.6044 54.2L63.5444 52.9H63.9044L64.3644 52.3L71.7844 43.2H72.8244L63.6044 54.2ZM70.7044 58L66.5844 50.22L68.3844 48.12L73.8044 58H70.7044ZM79.4564 58.34C77.9764 58.34 76.8564 58.02 75.6964 57.4L75.8164 54.8H76.9564L77.5564 57.6L76.5964 57.48V56.76C77.4564 57.34 78.1764 57.6 79.2564 57.6C80.8764 57.6 81.7364 56.98 81.7364 55.86C81.7364 54.98 81.3164 54.4 79.6964 53.92L78.5764 53.54C76.8364 52.98 75.7964 52 75.7964 50.36C75.7964 48.42 77.3364 46.98 80.0964 46.98C81.3764 46.98 82.3564 47.28 83.4764 47.86L83.3564 50.26H82.3364L81.5564 47.58L82.3964 47.86V48.46C81.5964 47.94 81.0364 47.7 80.1364 47.7C78.7964 47.7 78.0164 48.36 78.0164 49.38C78.0164 50.18 78.4764 50.76 79.9964 51.22L81.1164 51.58C83.1964 52.26 84.0764 53.28 84.0764 54.84C84.0764 56.98 82.3764 58.34 79.4564 58.34Z" fill="#BFA45E"/>
<rect x="102.5" y="16.5" width="37" height="37" stroke="#BFA45E" stroke-width="3"/>
<rect x="94.837" y="35" width="37" height="37" transform="rotate(-45 94.837 35)" stroke="#BFA45E" stroke-width="3"/>
</svg>
